<svg viewBox="0 0 820 280" width="820" height="280" xmlns="http://www.w3.org/2000/svg">
<defs>

  <linearGradient id="bgGrad" x1="0%" y1="0%" x2="100%" y2="100%">
    <stop offset="0%"   stop-color="#0c0c22"/>
    <stop offset="100%" stop-color="#050510"/>
  </linearGradient>

  <linearGradient id="bottomFade" x1="0" y1="0" x2="0" y2="1">
    <stop offset="55%" stop-color="#07071a" stop-opacity="0"/>
    <stop offset="100%" stop-color="#07071a" stop-opacity="1"/>
  </linearGradient>

  <linearGradient id="leftVig" x1="0" y1="0" x2="1" y2="0">
    <stop offset="0%"  stop-color="#07071a" stop-opacity="0.72"/>
    <stop offset="45%" stop-color="#07071a" stop-opacity="0"/>
  </linearGradient>

  <filter id="textGlow" x="-8%" y="-30%" width="116%" height="160%">
    <feGaussianBlur stdDeviation="4" result="blur"/>
    <feMerge><feMergeNode in="blur"/><feMergeNode in="SourceGraphic"/></feMerge>
  </filter>

  <filter id="redGlow" x="-50%" y="-50%" width="200%" height="200%">
    <feGaussianBlur stdDeviation="5" result="blur"/>
    <feFlood flood-color="#cc1a1a" flood-opacity="0.55" result="col"/>
    <feComposite in="col" in2="blur" operator="in" result="shadow"/>
    <feMerge><feMergeNode in="shadow"/><feMergeNode in="SourceGraphic"/></feMerge>
  </filter>

</defs>

<!-- ══ BACKGROUND ══ -->
<rect width="820" height="280" fill="url(#bgGrad)"/>

<!-- ══ STARS ══ -->
<circle cx="28"  cy="14"  r=".8" fill="#fff" opacity=".15"><animate attributeName="opacity" values=".15;.90;.15" dur="3.4s" begin=".3s"  repeatCount="indefinite"/></circle>
<circle cx="72"  cy="8"   r=".6" fill="#fff" opacity=".15"><animate attributeName="opacity" values=".15;.88;.15" dur="4.1s" begin="1.1s" repeatCount="indefinite"/></circle>
<circle cx="115" cy="22"  r="1"  fill="#fff" opacity=".15"><animate attributeName="opacity" values=".15;.92;.15" dur="2.7s" begin=".7s"  repeatCount="indefinite"/></circle>
<circle cx="172" cy="11"  r=".7" fill="#fff" opacity=".15"><animate attributeName="opacity" values=".15;.85;.15" dur="5.2s" begin="2.0s" repeatCount="indefinite"/></circle>
<circle cx="228" cy="18"  r=".9" fill="#fff" opacity=".15"><animate attributeName="opacity" values=".15;.90;.15" dur="3.8s" begin=".4s"  repeatCount="indefinite"/></circle>
<circle cx="292" cy="7"   r=".6" fill="#fff" opacity=".15"><animate attributeName="opacity" values=".15;.87;.15" dur="4.6s" begin="1.6s" repeatCount="indefinite"/></circle>
<circle cx="352" cy="24"  r=".8" fill="#fff" opacity=".15"><animate attributeName="opacity" values=".15;.91;.15" dur="3.1s" begin=".9s"  repeatCount="indefinite"/></circle>
<circle cx="418" cy="10"  r="1"  fill="#fff" opacity=".15"><animate attributeName="opacity" values=".15;.93;.15" dur="2.9s" begin="2.3s" repeatCount="indefinite"/></circle>
<circle cx="478" cy="19"  r=".7" fill="#fff" opacity=".15"><animate attributeName="opacity" values=".15;.86;.15" dur="5.5s" begin=".2s"  repeatCount="indefinite"/></circle>
<circle cx="544" cy="6"   r=".9" fill="#fff" opacity=".15"><animate attributeName="opacity" values=".15;.89;.15" dur="3.7s" begin="1.4s" repeatCount="indefinite"/></circle>
<circle cx="602" cy="23"  r=".6" fill="#fff" opacity=".15"><animate attributeName="opacity" values=".15;.84;.15" dur="4.3s" begin=".8s"  repeatCount="indefinite"/></circle>
<circle cx="658" cy="12"  r=".8" fill="#fff" opacity=".15"><animate attributeName="opacity" values=".15;.91;.15" dur="2.6s" begin="1.9s" repeatCount="indefinite"/></circle>
<circle cx="718" cy="27"  r="1"  fill="#fff" opacity=".15"><animate attributeName="opacity" values=".15;.88;.15" dur="4.8s" begin=".5s"  repeatCount="indefinite"/></circle>
<circle cx="774" cy="9"   r=".7" fill="#fff" opacity=".15"><animate attributeName="opacity" values=".15;.92;.15" dur="3.3s" begin="2.7s" repeatCount="indefinite"/></circle>
<circle cx="808" cy="21"  r=".6" fill="#fff" opacity=".15"><animate attributeName="opacity" values=".15;.87;.15" dur="5.0s" begin="1.2s" repeatCount="indefinite"/></circle>
<circle cx="50"  cy="42"  r=".7" fill="#fff" opacity=".15"><animate attributeName="opacity" values=".15;.85;.15" dur="4.0s" begin="1.5s" repeatCount="indefinite"/></circle>
<circle cx="138" cy="50"  r=".9" fill="#fff" opacity=".15"><animate attributeName="opacity" values=".15;.90;.15" dur="3.6s" begin=".6s"  repeatCount="indefinite"/></circle>
<circle cx="214" cy="37"  r=".6" fill="#fff" opacity=".15"><animate attributeName="opacity" values=".15;.86;.15" dur="5.1s" begin="2.1s" repeatCount="indefinite"/></circle>
<circle cx="312" cy="55"  r=".8" fill="#fff" opacity=".15"><animate attributeName="opacity" values=".15;.91;.15" dur="2.8s" begin="1.0s" repeatCount="indefinite"/></circle>
<circle cx="402" cy="44"  r="1"  fill="#fff" opacity=".15"><animate attributeName="opacity" values=".15;.93;.15" dur="4.4s" begin=".3s"  repeatCount="indefinite"/></circle>
<circle cx="488" cy="52"  r=".7" fill="#fff" opacity=".15"><animate attributeName="opacity" values=".15;.87;.15" dur="3.2s" begin="1.8s" repeatCount="indefinite"/></circle>
<circle cx="568" cy="40"  r=".9" fill="#fff" opacity=".15"><animate attributeName="opacity" values=".15;.89;.15" dur="5.7s" begin="2.5s" repeatCount="indefinite"/></circle>
<circle cx="638" cy="57"  r=".6" fill="#fff" opacity=".15"><animate attributeName="opacity" values=".15;.84;.15" dur="3.9s" begin=".7s"  repeatCount="indefinite"/></circle>
<circle cx="712" cy="46"  r=".8" fill="#fff" opacity=".15"><animate attributeName="opacity" values=".15;.90;.15" dur="4.5s" begin="1.3s" repeatCount="indefinite"/></circle>
<circle cx="788" cy="38"  r="1"  fill="#fff" opacity=".15"><animate attributeName="opacity" values=".15;.92;.15" dur="2.9s" begin="2.9s" repeatCount="indefinite"/></circle>

<!-- ══ BUILDINGS — far layer ══ -->
<g fill="#0e0e26" opacity=".65">
  <rect x="0"   y="180" width="44"  height="100"/>
  <rect x="40"  y="164" width="28"  height="116"/>
  <rect x="64"  y="174" width="36"  height="106"/>
  <rect x="158" y="166" width="44"  height="114"/>
  <rect x="198" y="176" width="30"  height="104"/>
  <rect x="224" y="158" width="50"  height="122"/>
  <rect x="448" y="169" width="38"  height="111"/>
  <rect x="482" y="156" width="52"  height="124"/>
  <rect x="530" y="171" width="32"  height="109"/>
  <rect x="702" y="176" width="40"  height="104"/>
  <rect x="738" y="163" width="30"  height="117"/>
  <rect x="764" y="171" width="48"  height="109"/>
</g>

<!-- ══ BUILDINGS — main layer ══ -->
<g fill="#0c0c20">
  <rect x="0"   y="146" width="58"  height="134"/>
  <polygon points="82,116 86,116 89,129 94,132 96,141 102,141 102,280 78,280 78,141 83,141 85,132 90,129"/>
  <rect x="102" y="149" width="70"  height="131"/>
  <polygon points="272,84 278,84 281,99 286,101 288,109 290,115 292,121 294,127 302,127 302,280 260,280 260,127 268,127 270,121 272,115 274,109 276,101 281,99"/>
  <rect x="322" y="143" width="56"  height="137"/>
  <rect x="432" y="137" width="68"  height="143"/>
  <rect x="504" y="133" width="82"  height="147"/>
  <polygon points="600,96 606,96 610,113 614,116 616,125 620,131 626,131 626,280 592,280 592,131 598,131 602,125 606,116 608,113"/>
  <rect x="642" y="146" width="60"  height="134"/>
  <rect x="700" y="139" width="76"  height="141"/>
  <rect x="774" y="151" width="46"  height="129"/>
</g>

<!-- ══ WINDOWS ══ -->
<rect x="6"   y="156" width="3" height="4" fill="#ffd060"><animate attributeName="opacity" values=".65;.28;.82;.65" keyTimes="0;.4;.8;1" dur="4.2s" begin=".5s"  repeatCount="indefinite"/></rect>
<rect x="12"  y="156" width="3" height="4" fill="#ffd060"><animate attributeName="opacity" values=".40;.76;.18;.40" keyTimes="0;.25;.65;1" dur="3.8s" begin="1.2s" repeatCount="indefinite"/></rect>
<rect x="18"  y="156" width="3" height="4" fill="#ffa040"><animate attributeName="opacity" values=".65;.30;.80;.65" keyTimes="0;.4;.8;1" dur="5.1s" begin=".2s"  repeatCount="indefinite"/></rect>
<rect x="6"   y="164" width="3" height="4" fill="#ffd060"><animate attributeName="opacity" values=".38;.75;.20;.38" keyTimes="0;.25;.65;1" dur="3.5s" begin="2.0s" repeatCount="indefinite"/></rect>
<rect x="12"  y="164" width="3" height="4" fill="#ffd060"><animate attributeName="opacity" values=".65;.28;.82;.65" keyTimes="0;.4;.8;1" dur="4.7s" begin=".8s"  repeatCount="indefinite"/></rect>
<rect x="18"  y="164" width="3" height="4" fill="#ffa040"><animate attributeName="opacity" values=".40;.78;.16;.40" keyTimes="0;.25;.65;1" dur="3.2s" begin="1.5s" repeatCount="indefinite"/></rect>
<rect x="30"  y="154" width="3" height="4" fill="#ffd060"><animate attributeName="opacity" values=".65;.25;.84;.65" keyTimes="0;.4;.8;1" dur="4.8s" begin=".7s"  repeatCount="indefinite"/></rect>
<rect x="36"  y="154" width="3" height="4" fill="#ffa040"><animate attributeName="opacity" values=".38;.72;.22;.38" keyTimes="0;.25;.65;1" dur="3.6s" begin="2.2s" repeatCount="indefinite"/></rect>
<rect x="42"  y="154" width="3" height="4" fill="#ffd060"><animate attributeName="opacity" values=".65;.30;.80;.65" keyTimes="0;.4;.8;1" dur="5.2s" begin=".3s"  repeatCount="indefinite"/></rect>
<rect x="112" y="159" width="3" height="4" fill="#ffd060"><animate attributeName="opacity" values=".65;.28;.82;.65" keyTimes="0;.4;.8;1" dur="4.3s" begin="1.3s" repeatCount="indefinite"/></rect>
<rect x="118" y="159" width="3" height="4" fill="#ffd060"><animate attributeName="opacity" values=".40;.76;.18;.40" keyTimes="0;.25;.65;1" dur="3.7s" begin=".6s"  repeatCount="indefinite"/></rect>
<rect x="124" y="159" width="3" height="4" fill="#ffa040"><animate attributeName="opacity" values=".65;.26;.84;.65" keyTimes="0;.4;.8;1" dur="5.0s" begin="2.4s" repeatCount="indefinite"/></rect>
<rect x="130" y="159" width="3" height="4" fill="#ffd060"><animate attributeName="opacity" values=".38;.74;.20;.38" keyTimes="0;.25;.65;1" dur="4.6s" begin=".1s"  repeatCount="indefinite"/></rect>
<rect x="112" y="167" width="3" height="4" fill="#ffd060"><animate attributeName="opacity" values=".65;.29;.81;.65" keyTimes="0;.4;.8;1" dur="3.4s" begin="1.7s" repeatCount="indefinite"/></rect>
<rect x="124" y="167" width="3" height="4" fill="#ffa040"><animate attributeName="opacity" values=".40;.77;.17;.40" keyTimes="0;.25;.65;1" dur="5.3s" begin="2.8s" repeatCount="indefinite"/></rect>
<rect x="265" y="136" width="2" height="3" fill="#ffd060"><animate attributeName="opacity" values=".65;.28;.82;.65" keyTimes="0;.4;.8;1" dur="4.1s" begin="1.6s" repeatCount="indefinite"/></rect>
<rect x="269" y="136" width="2" height="3" fill="#ffd060"><animate attributeName="opacity" values=".38;.75;.20;.38" keyTimes="0;.25;.65;1" dur="3.6s" begin=".4s"  repeatCount="indefinite"/></rect>
<rect x="273" y="136" width="2" height="3" fill="#ffa040"><animate attributeName="opacity" values=".65;.27;.83;.65" keyTimes="0;.4;.8;1" dur="5.5s" begin="2.0s" repeatCount="indefinite"/></rect>
<rect x="512" y="143" width="3" height="4" fill="#ffd060"><animate attributeName="opacity" values=".65;.28;.82;.65" keyTimes="0;.4;.8;1" dur="4.5s" begin="1.4s" repeatCount="indefinite"/></rect>
<rect x="518" y="143" width="3" height="4" fill="#ffa040"><animate attributeName="opacity" values=".38;.73;.21;.38" keyTimes="0;.25;.65;1" dur="3.3s" begin=".6s"  repeatCount="indefinite"/></rect>
<rect x="524" y="143" width="3" height="4" fill="#ffd060"><animate attributeName="opacity" values=".65;.30;.80;.65" keyTimes="0;.4;.8;1" dur="5.6s" begin="2.2s" repeatCount="indefinite"/></rect>
<rect x="530" y="143" width="3" height="4" fill="#ffd060"><animate attributeName="opacity" values=".40;.76;.18;.40" keyTimes="0;.25;.65;1" dur="4.2s" begin=".3s"  repeatCount="indefinite"/></rect>
<rect x="652" y="156" width="3" height="4" fill="#ffd060"><animate attributeName="opacity" values=".65;.27;.83;.65" keyTimes="0;.4;.8;1" dur="4.4s" begin="2.1s" repeatCount="indefinite"/></rect>
<rect x="658" y="156" width="3" height="4" fill="#ffd060"><animate attributeName="opacity" values=".38;.74;.22;.38" keyTimes="0;.25;.65;1" dur="3.8s" begin=".4s"  repeatCount="indefinite"/></rect>
<rect x="664" y="156" width="3" height="4" fill="#ffa040"><animate attributeName="opacity" values=".65;.29;.81;.65" keyTimes="0;.4;.8;1" dur="5.3s" begin="1.0s" repeatCount="indefinite"/></rect>
<rect x="708" y="149" width="3" height="4" fill="#ffd060"><animate attributeName="opacity" values=".38;.72;.20;.38" keyTimes="0;.25;.65;1" dur="3.7s" begin=".6s"  repeatCount="indefinite"/></rect>
<rect x="714" y="149" width="3" height="4" fill="#ffa040"><animate attributeName="opacity" values=".65;.28;.82;.65" keyTimes="0;.4;.8;1" dur="4.8s" begin="2.3s" repeatCount="indefinite"/></rect>
<rect x="720" y="149" width="3" height="4" fill="#ffd060"><animate attributeName="opacity" values=".40;.77;.17;.40" keyTimes="0;.25;.65;1" dur="3.3s" begin=".9s"  repeatCount="indefinite"/></rect>
<rect x="726" y="149" width="3" height="4" fill="#ffd060"><animate attributeName="opacity" values=".65;.26;.84;.65" keyTimes="0;.4;.8;1" dur="5.4s" begin="1.5s" repeatCount="indefinite"/></rect>

<!-- ══ WEB STRANDS from top-right ══ -->
<line x1="820" y1="0" x2="572" y2="280" stroke="rgba(255,255,255,.48)" stroke-width=".9" fill="none" stroke-dasharray="620" stroke-dashoffset="620"><animate attributeName="stroke-dashoffset" from="620" to="0" dur="1.3s" begin=".38s" fill="freeze"/></line>
<line x1="820" y1="0" x2="662" y2="280" stroke="rgba(255,255,255,.48)" stroke-width=".9" fill="none" stroke-dasharray="620" stroke-dashoffset="620"><animate attributeName="stroke-dashoffset" from="620" to="0" dur="1.3s" begin=".52s" fill="freeze"/></line>
<line x1="820" y1="0" x2="752" y2="280" stroke="rgba(255,255,255,.48)" stroke-width=".9" fill="none" stroke-dasharray="620" stroke-dashoffset="620"><animate attributeName="stroke-dashoffset" from="620" to="0" dur="1.3s" begin=".66s" fill="freeze"/></line>
<line x1="820" y1="0" x2="820" y2="200" stroke="rgba(255,255,255,.48)" stroke-width=".9" fill="none" stroke-dasharray="620" stroke-dashoffset="620"><animate attributeName="stroke-dashoffset" from="620" to="0" dur="1.3s" begin=".80s" fill="freeze"/></line>
<line x1="820" y1="0" x2="482" y2="212" stroke="rgba(255,255,255,.48)" stroke-width=".9" fill="none" stroke-dasharray="620" stroke-dashoffset="620"><animate attributeName="stroke-dashoffset" from="620" to="0" dur="1.3s" begin=".46s" fill="freeze"/></line>
<line x1="820" y1="0" x2="562" y2="172" stroke="rgba(255,255,255,.48)" stroke-width=".9" fill="none" stroke-dasharray="620" stroke-dashoffset="620"><animate attributeName="stroke-dashoffset" from="620" to="0" dur="1.3s" begin=".60s" fill="freeze"/></line>
<line x1="820" y1="0" x2="642" y2="150" stroke="rgba(255,255,255,.48)" stroke-width=".9" fill="none" stroke-dasharray="620" stroke-dashoffset="620"><animate attributeName="stroke-dashoffset" from="620" to="0" dur="1.3s" begin=".74s" fill="freeze"/></line>
<line x1="820" y1="0" x2="722" y2="136" stroke="rgba(255,255,255,.48)" stroke-width=".9" fill="none" stroke-dasharray="620" stroke-dashoffset="620"><animate attributeName="stroke-dashoffset" from="620" to="0" dur="1.3s" begin=".88s" fill="freeze"/></line>
<line x1="820" y1="0" x2="784" y2="110" stroke="rgba(255,255,255,.48)" stroke-width=".9" fill="none" stroke-dasharray="620" stroke-dashoffset="620"><animate attributeName="stroke-dashoffset" from="620" to="0" dur="1.3s" begin="1.02s" fill="freeze"/></line>

<!-- ══ WEB ARCS ══ -->
<path d="M 758,0  Q 802,34  820,27"  fill="none" stroke="rgba(255,255,255,.28)" stroke-width=".6" stroke-dasharray="420" stroke-dashoffset="420"><animate attributeName="stroke-dashoffset" from="420" to="0" dur="1.1s" begin="1.15s" fill="freeze"/></path>
<path d="M 702,0  Q 778,60  820,53"  fill="none" stroke="rgba(255,255,255,.28)" stroke-width=".6" stroke-dasharray="420" stroke-dashoffset="420"><animate attributeName="stroke-dashoffset" from="420" to="0" dur="1.1s" begin="1.28s" fill="freeze"/></path>
<path d="M 638,0  Q 750,94  820,86"  fill="none" stroke="rgba(255,255,255,.28)" stroke-width=".6" stroke-dasharray="420" stroke-dashoffset="420"><animate attributeName="stroke-dashoffset" from="420" to="0" dur="1.1s" begin="1.42s" fill="freeze"/></path>
<path d="M 562,0  Q 720,130 820,120" fill="none" stroke="rgba(255,255,255,.28)" stroke-width=".6" stroke-dasharray="420" stroke-dashoffset="420"><animate attributeName="stroke-dashoffset" from="420" to="0" dur="1.1s" begin="1.56s" fill="freeze"/></path>
<path d="M 478,16 Q 684,165 820,154" fill="none" stroke="rgba(255,255,255,.28)" stroke-width=".6" stroke-dasharray="420" stroke-dashoffset="420"><animate attributeName="stroke-dashoffset" from="420" to="0" dur="1.1s" begin="1.70s" fill="freeze"/></path>
<path d="M 396,48 Q 650,198 820,186" fill="none" stroke="rgba(255,255,255,.28)" stroke-width=".6" stroke-dasharray="420" stroke-dashoffset="420"><animate attributeName="stroke-dashoffset" from="420" to="0" dur="1.1s" begin="1.84s" fill="freeze"/></path>
<path d="M 676,216 Q 750,250 820,236" fill="none" stroke="rgba(255,255,255,.28)" stroke-width=".6" stroke-dasharray="420" stroke-dashoffset="420"><animate attributeName="stroke-dashoffset" from="420" to="0" dur="1.1s" begin="1.98s" fill="freeze"/></path>

<!-- ══ WEB ROPE ══ -->
<line x1="820" y1="0" x2="258" y2="150" fill="none" stroke="rgba(255,255,255,.68)" stroke-width="1.1" stroke-dasharray="500" stroke-dashoffset="500">
  <animate attributeName="stroke-dashoffset" from="500" to="0" dur=".75s" begin="2.1s" fill="freeze"/>
</line>

<!-- ══ SPIDER-MAN ══ -->
<g opacity="0">
  <animate attributeName="opacity" from="0" to="1" dur=".3s" begin="2.1s" fill="freeze"/>
  <animateTransform attributeName="transform" type="translate"
    values="-65,228; 192,154; 258,150"
    keyTimes="0;.76;1"
    dur="2.0s" begin="2.1s" fill="freeze"
    calcMode="spline" keySplines=".42 0 .58 1;.42 0 .58 1"/>

  <line x1="-6"  y1="11" x2="-20" y2="32"  stroke="#1a3a8c" stroke-width="6"  stroke-linecap="round"/>
  <line x1="6"   y1="11" x2="15"  y2="34"  stroke="#1a3a8c" stroke-width="6"  stroke-linecap="round"/>
  <ellipse cx="-21" cy="34" rx="5.5" ry="3.2" fill="#1a3a8c" transform="rotate(-28,-21,34)"/>
  <ellipse cx="17"  cy="36" rx="5.5" ry="3.2" fill="#1a3a8c" transform="rotate(14,17,36)"/>
  <ellipse cx="0" cy="0" rx="12" ry="14" fill="#cc1a1a"/>
  <rect x="-12" y="7" width="24" height="6" rx="2" fill="#1a3a8c"/>
  <circle cx="11"  cy="-5" r="5.5" fill="#cc1a1a"/>
  <circle cx="-11" cy="-5" r="5.5" fill="#cc1a1a"/>
  <line x1="11"  y1="-7" x2="28"  y2="-24" stroke="#1a3a8c" stroke-width="5.5" stroke-linecap="round"/>
  <ellipse cx="30" cy="-26" rx="5"  ry="4"  fill="#1a3a8c" transform="rotate(-42,30,-26)"/>
  <line x1="-11" y1="-7" x2="-24" y2="6"   stroke="#1a3a8c" stroke-width="5.5" stroke-linecap="round"/>
  <ellipse cx="-26" cy="7" rx="5"  ry="4"   fill="#1a3a8c" transform="rotate(28,-26,7)"/>
  <circle cx="0" cy="-21" r="11.5" fill="#cc1a1a"/>
  <ellipse cx="-4.5" cy="-22" rx="4.8" ry="3.8" fill="#e8e8e8" transform="rotate(-14,-4.5,-22)"/>
  <ellipse cx="4.5"  cy="-22" rx="4.8" ry="3.8" fill="#e8e8e8" transform="rotate(14,4.5,-22)"/>
  <line x1="0" y1="-33" x2="0" y2="13"  stroke="#111" stroke-width=".8" opacity=".65"/>
  <line x1="-12" y1="-8" x2="12" y2="-8" stroke="#111" stroke-width=".8" opacity=".65"/>
  <line x1="-12" y1="0"  x2="12" y2="0"  stroke="#111" stroke-width=".8" opacity=".65"/>
  <line x1="-12" y1="7"  x2="12" y2="7"  stroke="#111" stroke-width=".8" opacity=".65"/>
  <path d="M -12,-8 Q 0,-15 12,-8" stroke="#111" stroke-width=".7" fill="none" opacity=".55"/>
  <path d="M -12,0  Q 0,-6  12,0"  stroke="#111" stroke-width=".7" fill="none" opacity=".55"/>
  <line x1="-3" y1="-33" x2="-9"  y2="-18" stroke="#111" stroke-width=".6" opacity=".5"/>
  <line x1="3"  y1="-33" x2="9"   y2="-18" stroke="#111" stroke-width=".6" opacity=".5"/>
  <line x1="-11" y1="-25" x2="11" y2="-25" stroke="#111" stroke-width=".6" opacity=".5"/>
  <line x1="-11" y1="-20" x2="11" y2="-20" stroke="#111" stroke-width=".6" opacity=".5"/>
  <line x1="30" y1="-26" x2="562" y2="-276" stroke="rgba(255,255,255,.62)" stroke-width="1"/>
</g>

<!-- ══ TEXT — Name ══ -->
<g opacity="0">
  <animate attributeName="opacity" from="0" to="1" dur=".65s" begin=".55s" fill="freeze"/>
  <animateTransform attributeName="transform" type="translate" from="0,13" to="0,0" dur=".65s" begin=".55s" fill="freeze"/>
  <text x="76" y="108"
        font-family="'Arial Black',Impact,sans-serif"
        font-size="50" font-weight="900" letter-spacing="-1"
        fill="white" filter="url(#textGlow)">BARAN ERDOGAN</text>
</g>

<!-- ══ RED ACCENT LINE ══ -->
<rect x="76" y="119" height="3" rx="1.5" fill="#cc1a1a" width="0">
  <animate attributeName="width" from="0" to="368" dur=".45s" begin="1.2s" fill="freeze"/>
</rect>

<!-- ══ TEXT — Subtitle ══ -->
<g opacity="0">
  <animate attributeName="opacity" from="0" to="1" dur=".6s" begin="1.35s" fill="freeze"/>
  <animateTransform attributeName="transform" type="translate" from="0,13" to="0,0" dur=".6s" begin="1.35s" fill="freeze"/>
  <text x="78" y="147"
        font-family="Arial,Helvetica,sans-serif"
        font-size="15" font-weight="400" letter-spacing="3.5"
        fill="rgba(255,255,255,.78)">MSc BUSINESS ANALYTICS · ESADE</text>
</g>

<!-- ══ TEXT — Tagline ══ -->
<g opacity="0">
  <animate attributeName="opacity" from="0" to="1" dur=".6s" begin="1.65s" fill="freeze"/>
  <animateTransform attributeName="transform" type="translate" from="0,13" to="0,0" dur=".6s" begin="1.65s" fill="freeze"/>
  <text x="80" y="169"
        font-family="Arial,Helvetica,sans-serif"
        font-size="11.5" font-weight="300" letter-spacing="1.8"
        fill="rgba(255,255,255,.46)">ML  ·  CLOUD  ·  DATA ENGINEERING</text>
</g>

<!-- ══ SPIDER LOGO ══ -->
<g transform="translate(778,248)" filter="url(#redGlow)" opacity="0">
  <animate attributeName="opacity" from="0" to="1" dur=".5s" begin="3.8s" fill="freeze"/>
  <ellipse cx="0" cy="1"   rx="5"   ry="7.5" fill="#cc1a1a"/>
  <circle  cx="0" cy="-10" r="4.5"           fill="#cc1a1a"/>
  <line x1="-5" y1="-5"  x2="-16" y2="-13" stroke="#cc1a1a" stroke-width="1.5" stroke-linecap="round"/>
  <line x1="-5" y1="0"   x2="-17" y2="1"   stroke="#cc1a1a" stroke-width="1.5" stroke-linecap="round"/>
  <line x1="-5" y1="5"   x2="-16" y2="13"  stroke="#cc1a1a" stroke-width="1.5" stroke-linecap="round"/>
  <line x1="-2" y1="8"   x2="-5"  y2="19"  stroke="#cc1a1a" stroke-width="1.5" stroke-linecap="round"/>
  <line x1="5"  y1="-5"  x2="16"  y2="-13" stroke="#cc1a1a" stroke-width="1.5" stroke-linecap="round"/>
  <line x1="5"  y1="0"   x2="17"  y2="1"   stroke="#cc1a1a" stroke-width="1.5" stroke-linecap="round"/>
  <line x1="5"  y1="5"   x2="16"  y2="13"  stroke="#cc1a1a" stroke-width="1.5" stroke-linecap="round"/>
  <line x1="2"  y1="8"   x2="5"   y2="19"  stroke="#cc1a1a" stroke-width="1.5" stroke-linecap="round"/>
  <circle cx="0" cy="0" r="22" fill="none" stroke="#cc1a1a" stroke-width=".5" opacity=".32"/>
</g>

<!-- ══ OVERLAYS ══ -->
<rect x="0" y="208" width="820" height="72"  fill="url(#bottomFade)"/>
<rect x="0" y="0"   width="820" height="280" fill="url(#leftVig)"/>

</svg>
